<?xml version="1.0" standalone="no"?><!DOCTYPE svg PUBLIC "-//W3C//DTD SVG 1.1//EN" "http://www.w3.org/Graphics/SVG/1.1/DTD/svg11.dtd"><svg t="1678444286655" class="icon" viewBox="0 0 1024 1024" version="1.1" xmlns="http://www.w3.org/2000/svg" p-id="7231" xmlns:xlink="http://www.w3.org/1999/xlink" width="200" height="200"><path d="M0 0m186.181818 0l651.636364 0q186.181818 0 186.181818 186.181818l0 651.636364q0 186.181818-186.181818 186.181818l-651.636364 0q-186.181818 0-186.181818-186.181818l0-651.636364q0-186.181818 186.181818-186.181818Z" fill="#1377EB" p-id="7232"></path><path d="M512 256c-68.794182 0-133.352727 27.298909-181.015273 74.984727A255.232 255.232 0 0 0 256 512c0 68.794182 27.298909 133.352727 74.984727 181.015273A255.232 255.232 0 0 0 512 768c68.794182 0 133.352727-27.298909 181.015273-74.984727A255.232 255.232 0 0 0 768 512c0-68.794182-27.298909-133.352727-74.984727-181.015273A255.232 255.232 0 0 0 512 256z m0 46.545455c56.32 0 109.056 22.295273 148.107636 61.346909A208.686545 208.686545 0 0 1 721.454545 512c0 56.32-22.295273 109.056-61.346909 148.107636A208.686545 208.686545 0 0 1 512 721.454545a208.686545 208.686545 0 0 1-148.107636-61.346909A208.686545 208.686545 0 0 1 302.545455 512c0-56.32 22.295273-109.056 61.346909-148.107636A208.686545 208.686545 0 0 1 512 302.545455z" fill="#FFFFFF" p-id="7233"></path><path d="M462.964364 414.091636a23.272727 23.272727 0 0 1 32.907636 0l81.454545 81.454546a23.272727 23.272727 0 0 1 0 32.907636l-81.454545 81.454546a23.272727 23.272727 0 1 1-32.907636-32.907637L527.941818 512l-64.977454-65.000727a23.272727 23.272727 0 0 1-1.931637-30.72l1.931637-2.187637z" fill="#FFFFFF" p-id="7234"></path></svg>